<?xml version="1.0" encoding="UTF-8" standalone="no"?>
<!-- Created with Inkscape (http://www.inkscape.org/) -->

<svg
   width="210mm"
   height="210mm"
   viewBox="0 0 210 210"
   version="1.1"
   id="svg515"
   inkscape:version="1.3.2 (091e20e, 2023-11-25, custom)"
   sodipodi:docname="simple.svg"
   xmlns:inkscape="http://www.inkscape.org/namespaces/inkscape"
   xmlns:sodipodi="http://sodipodi.sourceforge.net/DTD/sodipodi-0.dtd"
   xmlns:xlink="http://www.w3.org/1999/xlink"
   xmlns="http://www.w3.org/2000/svg"
   xmlns:svg="http://www.w3.org/2000/svg"
   xmlns:rdf="http://www.w3.org/1999/02/22-rdf-syntax-ns#"
   xmlns:cc="http://creativecommons.org/ns#"
   xmlns:dc="http://purl.org/dc/elements/1.1/">
  <script
     xlink:href="tools.js"
     id="script648" />
  <script
     xlink:href="wuschel.js"
     id="script646" />
  <defs
     id="defs509" />
  <sodipodi:namedview
     id="base"
     pagecolor="#ffffff"
     bordercolor="#666666"
     borderopacity="1.0"
     inkscape:pageopacity="0.0"
     inkscape:pageshadow="2"
     inkscape:zoom="0.70710678"
     inkscape:cx="359.91735"
     inkscape:cy="518.30927"
     inkscape:document-units="mm"
     inkscape:current-layer="layer1"
     showgrid="false"
     inkscape:window-width="1920"
     inkscape:window-height="1111"
     inkscape:window-x="-9"
     inkscape:window-y="-9"
     inkscape:window-maximized="1"
     inkscape:showpageshadow="2"
     inkscape:pagecheckerboard="0"
     inkscape:deskcolor="#d1d1d1" />
  <metadata
     id="metadata512">
    <rdf:RDF>
      <cc:Work
         rdf:about="">
        <dc:format>image/svg+xml</dc:format>
        <dc:type
           rdf:resource="http://purl.org/dc/dcmitype/StillImage" />
      </cc:Work>
    </rdf:RDF>
  </metadata>
  <g
     inkscape:label="Ebene 1"
     inkscape:groupmode="layer"
     id="layer1">
    <g
       inkscape:label="pulsing"
       id="g6263"
       onload="Animated(RespRate)"
       style="display:inline;fill-opacity:1">
      <path
         inkscape:label="Max"
         id="use6257"
         style="display:inline;opacity:0.8;fill:#000000;fill-opacity:1;stroke:none;stroke-width:1.23303;stroke-linecap:butt;stroke-linejoin:miter;stroke-miterlimit:4;stroke-dasharray:none;stroke-dashoffset:0;stroke-opacity:1"
         inkscape:connector-curvature="0"
         d="m 112.90528,16.465652 c 31.50389,0 50.14727,36.497597 50.14727,58.297569 v 48.001789 c 0,6.93241 -5.61985,12.55223 -12.55222,12.55223 h -26.76907 c -15.09226,0 -31.306579,-12.23166 -31.306579,-27.32392 V 43.851177 c 0,-15.153918 5.38834,-27.385525 20.480599,-27.385525 z M 8.221182,74.763221 v 48.001789 c 0.02703,6.92957 5.659601,12.52888 12.589217,12.51523 h 26.756715 c 15.092265,0 31.31892,-12.23166 31.31892,-27.32392 V 43.752567 c -0.0247,-15.092264 -5.413,-27.286915 -20.505267,-27.286915 -31.50387,0 -50.159585,36.497597 -50.159585,58.297569 z"
         sodipodi:nodetypes="sssssssssccssccs"
         class="cls-14" />
      <path
         inkscape:label="Min"
         id="use6255"
         style="display:inline;opacity:1;fill:#6c7593;fill-opacity:1;stroke:none;stroke-width:1.23303;stroke-linecap:butt;stroke-linejoin:miter;stroke-miterlimit:4;stroke-dasharray:none;stroke-dashoffset:0;stroke-opacity:1"
         inkscape:connector-curvature="0"
         d="m 111.72302,33.292791 c 22.58316,0 39.65297,26.162862 39.65297,41.789891 V 109.4922 c 0,4.96942 -7.734,13.13933 -12.70341,13.13933 h -19.18906 c -10.8187,0 -22.441779,-12.90952 -22.441779,-23.72824 V 52.923779 c 0,-10.862888 3.862559,-19.630988 14.681279,-19.630988 z M 22.513399,75.082682 V 109.4922 c 0.01957,4.96738 5.36484,12.90465 10.332257,12.89486 h 19.180231 c 10.818701,0 22.450587,-12.69158 22.450587,-23.51028 V 52.853079 c -0.0178,-10.818705 -3.88024,-19.560288 -14.698956,-19.560288 -22.583165,0 -37.264119,26.162862 -37.264119,41.789891 z"
         sodipodi:nodetypes="sssssssssccssccs"
         class="cls-14" />
      <path
         inkscape:label="Time"
         id="use6871"
         style="display:inline;vector-effect:none;fill-opacity:1;fill:#000000"
         inkscape:transform-center-x="582.21111"
         inkscape:transform-center-y="-773.4301"
         inkscape:connector-curvature="0"
         d="m 30.158614,169.29062 c 13.27089,-0.94266 9.82409,-15.02645 15.07304,-14.97723 4.65526,0.0437 2.60935,13.96489 14.18079,14.80482"
         sodipodi:nodetypes="csc" />
    </g>
    <g
       id="g528"
       inkscape:label="Heart"
       onload="Animated(PulseRateHeart)">
      <path
         inkscape:label="Max"
         style="fill:#000000;stroke:none;stroke-width:1.23303;stroke-linecap:butt;stroke-linejoin:miter;stroke-opacity:1;font-variation-settings:normal;opacity:0.8;vector-effect:none;fill-opacity:1;stroke-miterlimit:4;stroke-dasharray:none;stroke-dashoffset:0;-inkscape-stroke:none;stop-color:#000000;stop-opacity:1"
         d="m 84.849782,64.54219 c 0,0 18.755418,-22.900037 35.175298,-14.811652 C 172.74969,75.702527 97.689319,131.65322 82.61643,140.03319 58.156036,126.08876 1.8948997,74.950522 46.715292,49.915684 61.378268,41.725544 84.849782,64.54219 84.849782,64.54219 Z"
         id="path519"
         inkscape:connector-curvature="0"
         sodipodi:nodetypes="cscsc" />
      <path
         inkscape:label="Min"
         sodipodi:nodetypes="cscsc"
         inkscape:connector-curvature="0"
         id="path517"
         d="m 84.849782,77.965255 c 0,0 13.992637,-28.972986 31.266928,-22.217481 33.69879,13.178672 -33.50028,83.778436 -33.50028,83.778436 0,0 -60.978763,-70.751282 -29.591918,-83.778436 15.809908,-6.561925 31.82527,22.217481 31.82527,22.217481 z"
         style="fill:#ff0000" />
      <path
         inkscape:label="Time"
         inkscape:connector-curvature="0"
         id="path523"
         d="m 88.869476,173.6381 c 10.66309,-62.90805 13.636264,-12.90108 23.630964,-7.9819 3.28801,1.61829 8.87781,-10.12974 12.189,-7.28113 l 14.52197,13.93825"
         style="fill:#000000;font-variation-settings:normal;opacity:1;vector-effect:none;fill-opacity:1;-inkscape-stroke:none;stop-color:#000000;stop-opacity:1"
         sodipodi:nodetypes="cscc" />
    </g>
    <ellipse
       style="font-variation-settings:normal;opacity:1;vector-effect:none;fill:#6c7593;fill-opacity:1;stroke:#d4d4d4;stroke-width:0.264583;stroke-opacity:1;-inkscape-stroke:none"
       id="path1"
       cx="31.430895"
       cy="191.01753"
       rx="12.722029"
       ry="11.412409"
       onload="Visibility(TidalVolume, safe, unknown, notavail)"
       inkscape:label="Test-Circle" />
    <path
       id="path2"
       style="opacity:1;vector-effect:none;fill:#6c7593;stroke:none;stroke-width:0.264583"
       inkscape:transform-center-x="-0.95748782"
       inkscape:transform-center-y="0.25542618"
       onload="HideAlways()"
       transform="translate(24.695704,21.702286)"
       d="m 172.12158,176.98587 -11.61789,-2.26927 -8.77466,7.94545 -5.46944,-10.49809 -11.68292,-1.9064 4.7976,-10.82164 -5.79369,-10.32269 11.45195,-2.99627 4.45829,-10.96579 9.48276,7.08535 11.35309,-3.35141 0.37285,11.83156 9.69879,6.78663 -9.01782,7.66836 z"
       inkscape:label="Star" />
  </g>
</svg>
